<svg width="1282" height="3760" viewBox="0 0 1282 3760" fill="none" xmlns="http://www.w3.org/2000/svg">
<path d="M48.3286 182.356L0.603394 207.64L4.01693 151.316L48.3286 182.356Z" fill="#004E32"/>
<path d="M705.798 350.537L647.832 320.832L704.487 284.55L705.798 350.537Z" fill="#004E32"/>
<path d="M834.371 441.534C834.306 462.125 818.53 478.767 799.134 478.707C779.737 478.646 764.065 461.905 764.13 441.314C764.194 420.724 779.97 404.081 799.367 404.142C818.763 404.203 834.435 420.944 834.371 441.534Z" fill="#004E32"/>
<path d="M1277.75 1.39412L1236.99 77.2329L1192.76 0.282837L1277.75 1.39412Z" fill="#004E32"/>
<path d="M179.601 744.289L130.13 744.128L157.189 700.09L179.601 744.289Z" fill="#004E32"/>
<path d="M638.273 1163.84L604.252 1114.83L665.684 1109.96L638.273 1163.84Z" fill="#004E32"/>
<path d="M702.898 1292.84C693.963 1309.45 674.035 1316.09 658.389 1307.68C642.743 1299.26 637.303 1278.97 646.239 1262.36C655.175 1245.75 675.102 1239.11 690.748 1247.53C706.395 1255.95 711.834 1276.23 702.898 1292.84Z" fill="#004E32"/>
<path d="M1251.05 1128.51L1185.39 1172.2L1182.85 1090.94L1251.05 1128.51Z" fill="#004E32"/>
<path d="M1149.62 1897.92L1170.87 1848.27L1203.59 1894.24L1149.62 1897.92Z" fill="#004E32"/>
<path d="M532.371 2179.98L596.134 2166.69L574.835 2230.51L532.371 2179.98Z" fill="#004E32"/>
<path d="M375.169 2189.93C362.286 2173.86 364.11 2151 379.242 2138.87C394.373 2126.73 417.083 2129.92 429.965 2145.98C442.847 2162.04 441.023 2184.9 425.892 2197.04C410.76 2209.17 388.051 2205.99 375.169 2189.93Z" fill="#004E32"/>
<path d="M306.587 2810.9L290.671 2726.28L373.422 2758.38L306.587 2810.9Z" fill="#004E32"/>
<path d="M52.1577 3463.35L4.43256 3488.63L7.8461 3432.31L52.1577 3463.35Z" fill="#004E32"/>
<path d="M709.627 3631.53L651.661 3601.83L708.316 3565.54L709.627 3631.53Z" fill="#004E32"/>
<path d="M838.2 3722.53C838.135 3743.12 822.359 3759.76 802.963 3759.7C783.566 3759.64 767.895 3742.9 767.959 3722.31C768.023 3701.72 783.8 3685.07 803.196 3685.14C822.592 3685.2 838.264 3701.94 838.2 3722.53Z" fill="#004E32"/>
<path d="M1281.58 3282.39L1240.82 3358.23L1196.59 3281.28L1281.58 3282.39Z" fill="#004E32"/>
</svg>
